M48
;Layer_Color=9474304
;FILE_FORMAT=2:5
INCH,LZ
;TYPE=PLATED
T1F00S00C0.01181
T2F00S00C0.03543
%
T01
X003462Y0020742
X0044488Y002313
X0050197Y0025984
X0050098Y0031004
X0049508Y0034843
X0045768Y0036909
X0042409Y0038559
X004439Y0055512
X0030118Y0060827
X0036614Y0071653
X0062598Y0053642
X0069882Y0028543
X0072835Y0031004
X0073327Y0019291
X0069193Y0021752
X006063Y0013484
X0021949Y0020768
X0020669Y0028839
X0021662Y0042549
X0028346Y0037894
X0025197Y0051378
X0006004Y0061417
X0004035Y0070472
T02
X0031811Y0007402
X0041811
X0051811
X0061811
X0071811
X0081811
X0087087Y0017559
Y0027559
Y0037559
Y0047559
Y0057559
X0081811Y0067402
X0071811
X0061811
X0051811
X0041811
X0031811
X0021811
X0011811
Y0007402
X0021811
M30
