G04*
G04 #@! TF.GenerationSoftware,Altium Limited,Altium Designer,22.4.2 (48)*
G04*
G04 Layer_Physical_Order=2*
G04 Layer_Color=16711680*
%FSLAX25Y25*%
%MOIN*%
G70*
G04*
G04 #@! TF.SameCoordinates,F7E3B1D8-2F66-413B-9CB6-F982D94F727F*
G04*
G04*
G04 #@! TF.FilePolarity,Positive*
G04*
G01*
G75*
%ADD10C,0.02362*%
%ADD12C,0.00787*%
%ADD14R,0.03150X0.03740*%
%ADD29C,0.01968*%
%ADD30C,0.01575*%
%ADD31C,0.01181*%
%ADD32C,0.01496*%
%ADD33R,0.05906X0.05906*%
%ADD34C,0.05906*%
%ADD35R,0.05906X0.05906*%
%ADD36C,0.02362*%
%ADD37R,0.07087X0.02362*%
%ADD38R,0.03150X0.05315*%
%ADD39R,0.03740X0.03150*%
%ADD40C,0.03150*%
G36*
X47047Y64204D02*
X44911D01*
X44704Y64704D01*
X44974Y64974D01*
X45494Y65876D01*
X45764Y66881D01*
Y66902D01*
X41811D01*
X37858D01*
Y66881D01*
X38128Y65876D01*
X38648Y64974D01*
X38919Y64704D01*
X38711Y64204D01*
X37279D01*
X36065Y65418D01*
X35984Y65528D01*
X35892Y65684D01*
X35809Y65860D01*
X35736Y66055D01*
X35675Y66272D01*
X35643Y66430D01*
X35764Y66881D01*
Y67922D01*
X35494Y68927D01*
X34974Y69829D01*
X34238Y70565D01*
X33337Y71085D01*
X32331Y71354D01*
X31291D01*
X30285Y71085D01*
X29384Y70565D01*
X28648Y69829D01*
X28128Y68927D01*
X27858Y67922D01*
Y66881D01*
X28128Y65876D01*
X28648Y64974D01*
X29384Y64239D01*
X30285Y63718D01*
X31291Y63449D01*
X32331D01*
X32782Y63570D01*
X32940Y63538D01*
X33158Y63477D01*
X33353Y63404D01*
X33528Y63321D01*
X33685Y63228D01*
X33794Y63147D01*
X35479Y61463D01*
X35479Y61463D01*
X36000Y61115D01*
X36614Y60993D01*
X36614Y60993D01*
X37189D01*
Y59949D01*
X41732D01*
X46276D01*
Y60338D01*
X46751Y60549D01*
X47047Y60316D01*
Y55610D01*
X45374Y53937D01*
X45281D01*
X45264Y53940D01*
X45246Y53937D01*
X37402D01*
Y50000D01*
X38460D01*
X38652Y49538D01*
X36388Y47274D01*
X35865Y46492D01*
X35682Y45571D01*
Y21457D01*
X35865Y20535D01*
X36039Y20276D01*
X36388Y19754D01*
X39045Y17096D01*
X39826Y16574D01*
X40748Y16391D01*
X66240D01*
X66277Y16398D01*
X66286Y16395D01*
X66422Y16329D01*
X66612Y16215D01*
X66826Y16065D01*
X67421Y15548D01*
Y10138D01*
X67126Y9843D01*
X64960D01*
X64238Y10565D01*
X63337Y11085D01*
X62331Y11354D01*
X61291D01*
X60285Y11085D01*
X59384Y10565D01*
X58662Y9843D01*
X54960D01*
X54238Y10565D01*
X53337Y11085D01*
X52331Y11354D01*
X51291D01*
X50285Y11085D01*
X49384Y10565D01*
X48662Y9843D01*
X44960D01*
X44238Y10565D01*
X43337Y11085D01*
X42331Y11354D01*
X41291D01*
X40285Y11085D01*
X39384Y10565D01*
X38662Y9843D01*
X34960D01*
X34238Y10565D01*
X33337Y11085D01*
X33169Y11130D01*
Y13484D01*
X1204D01*
Y73599D01*
X47047D01*
Y64204D01*
D02*
G37*
G36*
X34769Y67023D02*
X34793Y66692D01*
X34834Y66378D01*
X34894Y66084D01*
X34972Y65807D01*
X35068Y65548D01*
X35182Y65307D01*
X35314Y65084D01*
X35465Y64880D01*
X35633Y64693D01*
X34519Y63580D01*
X34333Y63748D01*
X34128Y63898D01*
X33906Y64031D01*
X33665Y64145D01*
X33406Y64241D01*
X33129Y64319D01*
X32834Y64378D01*
X32521Y64420D01*
X32190Y64443D01*
X31841Y64449D01*
X34764Y67372D01*
X34769Y67023D01*
D02*
G37*
G36*
X53560Y64972D02*
X53025Y64371D01*
X52807Y64091D01*
X52623Y63826D01*
X52472Y63573D01*
X52355Y63335D01*
X52272Y63111D01*
X52222Y62900D01*
X52205Y62704D01*
X51417D01*
X51401Y62900D01*
X51350Y63111D01*
X51267Y63335D01*
X51150Y63573D01*
X50999Y63826D01*
X50815Y64091D01*
X50597Y64371D01*
X50062Y64972D01*
X49744Y65293D01*
X53878D01*
X53560Y64972D01*
D02*
G37*
G36*
X87057Y54606D02*
X86605Y54604D01*
X85802Y54558D01*
X85450Y54514D01*
X85132Y54456D01*
X84847Y54384D01*
X84596Y54299D01*
X84378Y54199D01*
X84194Y54086D01*
X84043Y53959D01*
X83486Y54515D01*
X83614Y54666D01*
X83727Y54851D01*
X83826Y55069D01*
X83912Y55320D01*
X83984Y55605D01*
X84042Y55923D01*
X84086Y56274D01*
X84132Y57078D01*
X84134Y57529D01*
X87057Y54606D01*
D02*
G37*
G36*
X61641Y52951D02*
X61570Y53041D01*
X61494Y53122D01*
X61415Y53193D01*
X61330Y53254D01*
X61242Y53307D01*
X61148Y53349D01*
X61050Y53382D01*
X60948Y53406D01*
X60840Y53420D01*
X60729Y53425D01*
X60856Y54213D01*
X60963Y54216D01*
X61069Y54228D01*
X61174Y54246D01*
X61279Y54272D01*
X61382Y54306D01*
X61485Y54347D01*
X61587Y54395D01*
X61689Y54451D01*
X61789Y54515D01*
X61888Y54586D01*
X61641Y52951D01*
D02*
G37*
G36*
X45279Y53065D02*
X45327Y53000D01*
X45405Y52943D01*
X45516Y52893D01*
X45657Y52851D01*
X45831Y52817D01*
X46035Y52790D01*
X46539Y52760D01*
X46838Y52756D01*
Y51181D01*
X46539Y51177D01*
X45831Y51120D01*
X45657Y51086D01*
X45516Y51044D01*
X45405Y50994D01*
X45327Y50937D01*
X45279Y50872D01*
X45264Y50799D01*
Y53138D01*
X45279Y53065D01*
D02*
G37*
G36*
X42719Y51690D02*
X42784Y50811D01*
X43319D01*
X43205Y50795D01*
X43102Y50748D01*
X43012Y50668D01*
X42933Y50556D01*
X42870Y50418D01*
X42892Y50348D01*
X42939Y50243D01*
X42991Y50159D01*
X42797D01*
X42771Y50028D01*
X42741Y49788D01*
X42723Y49516D01*
X42717Y49213D01*
X40748D01*
X40742Y49516D01*
X40694Y50028D01*
X40667Y50159D01*
X40473D01*
X40525Y50243D01*
X40572Y50348D01*
X40595Y50418D01*
X40531Y50556D01*
X40453Y50668D01*
X40362Y50748D01*
X40260Y50795D01*
X40145Y50811D01*
X40681D01*
X40723Y51199D01*
X40745Y51690D01*
X40748Y51968D01*
X42717D01*
X42719Y51690D01*
D02*
G37*
G36*
X84978Y45492D02*
X84657Y45810D01*
X84056Y46345D01*
X83776Y46563D01*
X83511Y46747D01*
X83258Y46898D01*
X83020Y47015D01*
X82796Y47098D01*
X82585Y47149D01*
X82389Y47165D01*
Y47953D01*
X82585Y47969D01*
X82796Y48020D01*
X83020Y48103D01*
X83258Y48221D01*
X83511Y48371D01*
X83776Y48555D01*
X84056Y48773D01*
X84657Y49308D01*
X84978Y49626D01*
Y45492D01*
D02*
G37*
G36*
X43976Y39569D02*
X43902Y39489D01*
X43835Y39404D01*
X43777Y39315D01*
X43727Y39221D01*
X43684Y39124D01*
X43649Y39022D01*
X43623Y38915D01*
X43604Y38805D01*
X43593Y38690D01*
X43591Y38571D01*
X42421Y39740D01*
X42540Y39743D01*
X42655Y39754D01*
X42766Y39772D01*
X42872Y39799D01*
X42974Y39834D01*
X43072Y39876D01*
X43165Y39927D01*
X43254Y39985D01*
X43339Y40051D01*
X43420Y40126D01*
X43976Y39569D01*
D02*
G37*
G36*
X47335Y37920D02*
X47260Y37839D01*
X47194Y37754D01*
X47135Y37665D01*
X47085Y37572D01*
X47042Y37474D01*
X47008Y37372D01*
X46981Y37266D01*
X46962Y37155D01*
X46951Y37040D01*
X46949Y36921D01*
X45779Y38091D01*
X45899Y38093D01*
X46014Y38104D01*
X46124Y38123D01*
X46230Y38149D01*
X46332Y38184D01*
X46430Y38227D01*
X46523Y38277D01*
X46613Y38335D01*
X46697Y38402D01*
X46778Y38476D01*
X47335Y37920D01*
D02*
G37*
G36*
X87057Y34607D02*
X86656Y34602D01*
X85932Y34546D01*
X85609Y34494D01*
X85311Y34426D01*
X85038Y34341D01*
X84792Y34241D01*
X84571Y34124D01*
X84375Y33992D01*
X84206Y33843D01*
X83371Y34678D01*
X83519Y34848D01*
X83652Y35043D01*
X83769Y35264D01*
X83869Y35511D01*
X83953Y35783D01*
X84022Y36081D01*
X84074Y36405D01*
X84110Y36754D01*
X84134Y37530D01*
X87057Y34607D01*
D02*
G37*
G36*
X49496Y33661D02*
X49377Y33659D01*
X49262Y33648D01*
X49152Y33629D01*
X49045Y33603D01*
X48943Y33568D01*
X48846Y33525D01*
X48752Y33475D01*
X48663Y33417D01*
X48578Y33350D01*
X48498Y33276D01*
X47941Y33832D01*
X48015Y33913D01*
X48082Y33998D01*
X48140Y34087D01*
X48191Y34180D01*
X48233Y34278D01*
X48268Y34380D01*
X48295Y34486D01*
X48313Y34597D01*
X48324Y34712D01*
X48327Y34831D01*
X49496Y33661D01*
D02*
G37*
G36*
X46342Y33193D02*
X46366Y33126D01*
X46406Y33067D01*
X46462Y33016D01*
X46534Y32972D01*
X46622Y32937D01*
X46726Y32909D01*
X46846Y32890D01*
X46982Y32878D01*
X47134Y32874D01*
Y32087D01*
X46982Y32083D01*
X46846Y32071D01*
X46726Y32051D01*
X46622Y32024D01*
X46534Y31988D01*
X46462Y31945D01*
X46406Y31894D01*
X46366Y31835D01*
X46342Y31768D01*
X46334Y31693D01*
Y33268D01*
X46342Y33193D01*
D02*
G37*
G36*
X71991Y30177D02*
X71905Y30259D01*
X71816Y30333D01*
X71725Y30398D01*
X71631Y30454D01*
X71534Y30502D01*
X71435Y30541D01*
X71333Y30571D01*
X71229Y30593D01*
X71122Y30606D01*
X71012Y30610D01*
Y31398D01*
X71122Y31402D01*
X71229Y31415D01*
X71333Y31437D01*
X71435Y31467D01*
X71534Y31506D01*
X71631Y31554D01*
X71725Y31610D01*
X71816Y31675D01*
X71905Y31748D01*
X71991Y31831D01*
Y30177D01*
D02*
G37*
G36*
X51028Y31748D02*
X51117Y31675D01*
X51208Y31610D01*
X51302Y31554D01*
X51399Y31506D01*
X51498Y31467D01*
X51600Y31437D01*
X51704Y31415D01*
X51811Y31402D01*
X51921Y31398D01*
Y30610D01*
X51811Y30606D01*
X51704Y30593D01*
X51600Y30571D01*
X51498Y30541D01*
X51399Y30502D01*
X51302Y30454D01*
X51208Y30398D01*
X51117Y30333D01*
X51028Y30259D01*
X50942Y30177D01*
Y31831D01*
X51028Y31748D01*
D02*
G37*
G36*
X69038Y27716D02*
X68952Y27799D01*
X68863Y27872D01*
X68772Y27937D01*
X68678Y27994D01*
X68581Y28041D01*
X68482Y28080D01*
X68381Y28111D01*
X68276Y28132D01*
X68169Y28145D01*
X68060Y28150D01*
Y28937D01*
X68169Y28941D01*
X68276Y28954D01*
X68381Y28976D01*
X68482Y29006D01*
X68581Y29045D01*
X68678Y29093D01*
X68772Y29149D01*
X68863Y29214D01*
X68952Y29288D01*
X69038Y29370D01*
Y27716D01*
D02*
G37*
G36*
X51764Y26994D02*
X51689Y26914D01*
X51623Y26829D01*
X51564Y26740D01*
X51514Y26647D01*
X51471Y26549D01*
X51437Y26447D01*
X51410Y26341D01*
X51391Y26230D01*
X51381Y26115D01*
X51378Y25996D01*
X50209Y27165D01*
X50328Y27168D01*
X50443Y27179D01*
X50553Y27198D01*
X50660Y27224D01*
X50761Y27259D01*
X50859Y27301D01*
X50953Y27352D01*
X51042Y27410D01*
X51126Y27477D01*
X51207Y27551D01*
X51764Y26994D01*
D02*
G37*
G36*
X87057Y24607D02*
X86605Y24604D01*
X85802Y24558D01*
X85450Y24514D01*
X85132Y24456D01*
X84847Y24385D01*
X84596Y24299D01*
X84378Y24199D01*
X84194Y24086D01*
X84043Y23959D01*
X83486Y24515D01*
X83614Y24666D01*
X83727Y24851D01*
X83826Y25069D01*
X83912Y25320D01*
X83984Y25605D01*
X84042Y25923D01*
X84086Y26274D01*
X84132Y27078D01*
X84134Y27529D01*
X87057Y24607D01*
D02*
G37*
G36*
X45913Y24811D02*
X45779Y24764D01*
X45661Y24684D01*
X45559Y24573D01*
X45472Y24430D01*
X45402Y24256D01*
X45347Y24050D01*
X45307Y23812D01*
X45283Y23542D01*
X45276Y23240D01*
X43701D01*
X43693Y23542D01*
X43669Y23812D01*
X43630Y24050D01*
X43575Y24256D01*
X43504Y24430D01*
X43417Y24573D01*
X43315Y24684D01*
X43197Y24764D01*
X43063Y24811D01*
X42913Y24827D01*
X46063D01*
X45913Y24811D01*
D02*
G37*
G36*
X45382Y23912D02*
X45441Y23872D01*
X45509Y23836D01*
X45585Y23806D01*
X45669Y23779D01*
X45763Y23758D01*
X45864Y23742D01*
X45974Y23730D01*
X46220Y23720D01*
Y22539D01*
X46093Y22537D01*
X45864Y22518D01*
X45763Y22502D01*
X45669Y22480D01*
X45585Y22454D01*
X45509Y22424D01*
X45441Y22388D01*
X45382Y22348D01*
X45332Y22303D01*
Y23957D01*
X45382Y23912D01*
D02*
G37*
G36*
X70037Y22591D02*
X70135Y22525D01*
X70234Y22466D01*
X70334Y22415D01*
X70435Y22372D01*
X70538Y22337D01*
X70641Y22310D01*
X70747Y22290D01*
X70853Y22278D01*
X70961Y22275D01*
X71053Y21487D01*
X70942Y21483D01*
X70834Y21468D01*
X70731Y21445D01*
X70632Y21413D01*
X70537Y21371D01*
X70446Y21320D01*
X70359Y21259D01*
X70276Y21190D01*
X70197Y21111D01*
X70122Y21022D01*
X69941Y22666D01*
X70037Y22591D01*
D02*
G37*
G36*
X74284Y20000D02*
X74370Y19924D01*
X74458Y19857D01*
X74550Y19799D01*
X74645Y19750D01*
X74742Y19710D01*
X74843Y19679D01*
X74947Y19657D01*
X75054Y19643D01*
X75164Y19639D01*
X75131Y18851D01*
X75023Y18847D01*
X74916Y18835D01*
X74811Y18814D01*
X74708Y18784D01*
X74608Y18746D01*
X74510Y18700D01*
X74413Y18646D01*
X74319Y18583D01*
X74227Y18512D01*
X74137Y18432D01*
X74202Y20084D01*
X74284Y20000D01*
D02*
G37*
G36*
X80032Y18851D02*
X79888Y18846D01*
X79771Y18829D01*
X79681Y18801D01*
X79617Y18762D01*
X79581Y18712D01*
X79571Y18651D01*
X79589Y18578D01*
X79633Y18495D01*
X79704Y18400D01*
X79802Y18295D01*
X78688D01*
X78574Y18400D01*
X78456Y18495D01*
X78333Y18578D01*
X78206Y18651D01*
X78074Y18712D01*
X77937Y18762D01*
X77796Y18801D01*
X77650Y18829D01*
X77499Y18846D01*
X77344Y18851D01*
X78294Y19639D01*
X80032Y18851D01*
D02*
G37*
G36*
X84158Y16772D02*
X84150Y16847D01*
X84126Y16913D01*
X84086Y16973D01*
X84030Y17024D01*
X83958Y17067D01*
X83870Y17102D01*
X83766Y17130D01*
X83646Y17150D01*
X83510Y17161D01*
X83359Y17165D01*
Y17953D01*
X83510Y17957D01*
X83646Y17968D01*
X83766Y17988D01*
X83870Y18016D01*
X83958Y18051D01*
X84030Y18094D01*
X84086Y18146D01*
X84126Y18205D01*
X84150Y18272D01*
X84158Y18347D01*
Y16772D01*
D02*
G37*
G36*
X80319Y17061D02*
X80331Y16925D01*
X80350Y16805D01*
X80378Y16701D01*
X80413Y16613D01*
X80457Y16541D01*
X80508Y16485D01*
X80567Y16445D01*
X80634Y16421D01*
X80709Y16413D01*
X79134D01*
X79209Y16421D01*
X79276Y16445D01*
X79335Y16485D01*
X79386Y16541D01*
X79429Y16613D01*
X79465Y16701D01*
X79492Y16805D01*
X79512Y16925D01*
X79524Y17061D01*
X79528Y17212D01*
X80315D01*
X80319Y17061D01*
D02*
G37*
G36*
X67836Y18638D02*
X67899Y18449D01*
X68004Y18233D01*
X68151Y17990D01*
X68341Y17719D01*
X68845Y17096D01*
X69518Y16364D01*
X69917Y15957D01*
X69082Y15122D01*
X68675Y15521D01*
X67320Y16699D01*
X67050Y16888D01*
X66806Y17035D01*
X66590Y17140D01*
X66401Y17203D01*
X66239Y17224D01*
X67815Y18800D01*
X67836Y18638D01*
D02*
G37*
G36*
X72268Y15411D02*
X73222Y15460D01*
Y14067D01*
X73182Y14087D01*
X73105Y14106D01*
X72992Y14121D01*
X72654Y14147D01*
X72268Y14154D01*
Y13583D01*
X72256Y13695D01*
X72220Y13795D01*
X72161Y13884D01*
X72077Y13961D01*
X71970Y14026D01*
X71839Y14079D01*
X71684Y14120D01*
X71504Y14150D01*
X71302Y14167D01*
X71075Y14173D01*
Y15354D01*
X71250Y15359D01*
X71338Y15363D01*
X71504Y15378D01*
X71684Y15407D01*
X71839Y15449D01*
X71970Y15502D01*
X72077Y15567D01*
X72161Y15644D01*
X72220Y15732D01*
X72256Y15833D01*
X72268Y15945D01*
Y15411D01*
D02*
G37*
%LPC*%
G36*
X42331Y71354D02*
X42311D01*
Y67902D01*
X45764D01*
Y67922D01*
X45494Y68927D01*
X44974Y69829D01*
X44238Y70565D01*
X43337Y71085D01*
X42331Y71354D01*
D02*
G37*
G36*
X12331D02*
X12311D01*
Y67902D01*
X15764D01*
Y67922D01*
X15494Y68927D01*
X14974Y69829D01*
X14238Y70565D01*
X13337Y71085D01*
X12331Y71354D01*
D02*
G37*
G36*
X41311D02*
X41291D01*
X40285Y71085D01*
X39384Y70565D01*
X38648Y69829D01*
X38128Y68927D01*
X37858Y67922D01*
Y67902D01*
X41311D01*
Y71354D01*
D02*
G37*
G36*
X11311D02*
X11291D01*
X10285Y71085D01*
X9384Y70565D01*
X8648Y69829D01*
X8128Y68927D01*
X7858Y67922D01*
Y67902D01*
X11311D01*
Y71354D01*
D02*
G37*
G36*
X15764Y66902D02*
X12311D01*
Y63449D01*
X12331D01*
X13337Y63718D01*
X14238Y64239D01*
X14974Y64974D01*
X15494Y65876D01*
X15764Y66881D01*
Y66902D01*
D02*
G37*
G36*
X11311D02*
X7858D01*
Y66881D01*
X8128Y65876D01*
X8648Y64974D01*
X9384Y64239D01*
X10285Y63718D01*
X11291Y63449D01*
X11311D01*
Y66902D01*
D02*
G37*
G36*
X19307Y59839D02*
X17232D01*
Y57468D01*
X19307D01*
Y59839D01*
D02*
G37*
G36*
X16232D02*
X14157D01*
Y57468D01*
X16232D01*
Y59839D01*
D02*
G37*
G36*
X46276Y58949D02*
X42232D01*
Y57268D01*
X46276D01*
Y58949D01*
D02*
G37*
G36*
X41232D02*
X37189D01*
Y57268D01*
X41232D01*
Y58949D01*
D02*
G37*
G36*
X19307Y56468D02*
X17232D01*
Y54098D01*
X19307D01*
Y56468D01*
D02*
G37*
G36*
X16232D02*
X14157D01*
Y54098D01*
X16232D01*
Y56468D01*
D02*
G37*
G36*
X22331Y71354D02*
X21291D01*
X20285Y71085D01*
X19384Y70565D01*
X18648Y69829D01*
X18128Y68927D01*
X17858Y67922D01*
Y66881D01*
X18128Y65876D01*
X18648Y64974D01*
X19384Y64239D01*
X19804Y63996D01*
X19906Y63844D01*
X20021Y63645D01*
X20111Y63454D01*
X20178Y63273D01*
X20224Y63100D01*
X20245Y62965D01*
Y61555D01*
X20365Y60956D01*
X20704Y60448D01*
X21037Y60115D01*
X20961Y59626D01*
X20276D01*
Y54311D01*
X23177D01*
X23397Y54164D01*
X23996Y54045D01*
X27731D01*
X27951Y54033D01*
X27953Y54033D01*
Y53740D01*
X28735D01*
X28752Y53737D01*
X28769Y53740D01*
X29862D01*
X29868Y53739D01*
X29885Y53734D01*
X29900Y53724D01*
X29934Y53686D01*
X29989Y53596D01*
X30052Y53441D01*
X30112Y53218D01*
X30160Y52931D01*
X30178Y52722D01*
Y46591D01*
X30144Y46096D01*
X30126Y45965D01*
X29823D01*
Y45231D01*
X29822Y45228D01*
X29823Y45219D01*
Y45182D01*
X29819Y45165D01*
X29823Y45148D01*
Y39075D01*
X34547D01*
Y45148D01*
X34551Y45165D01*
X34547Y45182D01*
Y45219D01*
X34548Y45228D01*
X34547Y45231D01*
Y45965D01*
X34252D01*
X34192Y46827D01*
Y52722D01*
X34210Y52931D01*
X34258Y53218D01*
X34318Y53441D01*
X34381Y53596D01*
X34436Y53686D01*
X34470Y53724D01*
X34485Y53734D01*
X34502Y53739D01*
X34509Y53740D01*
X36614D01*
Y57677D01*
X28769D01*
X28752Y57681D01*
X28735Y57677D01*
X27953D01*
Y57209D01*
X27910Y57201D01*
X27615Y57176D01*
X25367D01*
X25260Y57185D01*
X25104Y57211D01*
X25000Y57239D01*
Y59626D01*
X24265D01*
X24239Y59723D01*
X24213Y59880D01*
X24203Y59989D01*
Y60728D01*
X24084Y61327D01*
X23745Y61835D01*
X23377Y62204D01*
Y62965D01*
X23398Y63100D01*
X23444Y63273D01*
X23511Y63454D01*
X23601Y63645D01*
X23716Y63844D01*
X23818Y63996D01*
X24238Y64239D01*
X24974Y64974D01*
X25494Y65876D01*
X25764Y66881D01*
Y67922D01*
X25494Y68927D01*
X24974Y69829D01*
X24238Y70565D01*
X23337Y71085D01*
X22331Y71354D01*
D02*
G37*
G36*
X26870Y45965D02*
X22146D01*
Y44764D01*
X22095Y44731D01*
X21228D01*
X20426Y44399D01*
X19813Y43785D01*
X19480Y42983D01*
Y42116D01*
X19813Y41314D01*
X20426Y40701D01*
X21228Y40368D01*
X22095D01*
X22146Y40335D01*
Y39075D01*
X26870D01*
Y45965D01*
D02*
G37*
%LPD*%
G36*
X23627Y65035D02*
X23403Y64778D01*
X23205Y64523D01*
X23034Y64269D01*
X22889Y64017D01*
X22770Y63765D01*
X22678Y63515D01*
X22612Y63267D01*
X22572Y63020D01*
X22559Y62774D01*
X21063D01*
X21050Y63020D01*
X21010Y63267D01*
X20944Y63515D01*
X20852Y63765D01*
X20733Y64017D01*
X20588Y64269D01*
X20417Y64523D01*
X20219Y64778D01*
X19995Y65035D01*
X19744Y65293D01*
X23878D01*
X23627Y65035D01*
D02*
G37*
G36*
X23393Y60036D02*
X23416Y59780D01*
X23453Y59553D01*
X23505Y59358D01*
X23573Y59192D01*
X23655Y59056D01*
X23752Y58950D01*
X23865Y58875D01*
X23992Y58830D01*
X24134Y58815D01*
X21142D01*
X21284Y58830D01*
X21411Y58875D01*
X21523Y58950D01*
X21621Y59056D01*
X21703Y59192D01*
X21770Y59358D01*
X21823Y59553D01*
X21860Y59780D01*
X21882Y60036D01*
X21890Y60323D01*
X23386D01*
X23393Y60036D01*
D02*
G37*
G36*
X24216Y56964D02*
X24260Y56837D01*
X24335Y56725D01*
X24440Y56628D01*
X24575Y56545D01*
X24739Y56478D01*
X24934Y56426D01*
X25158Y56388D01*
X25412Y56366D01*
X25697Y56358D01*
Y54862D01*
X25412Y54865D01*
X24575Y54924D01*
X24440Y54952D01*
X24335Y54984D01*
X24260Y55021D01*
X24216Y55063D01*
X24201Y55110D01*
Y57106D01*
X24216Y56964D01*
D02*
G37*
G36*
X31350Y54775D02*
X31310Y54791D01*
X31225Y54806D01*
X31094Y54819D01*
X30429Y54848D01*
X28909Y54862D01*
Y56358D01*
X31350Y56446D01*
Y54775D01*
D02*
G37*
G36*
X28752Y54540D02*
X28737Y54601D01*
X28692Y54656D01*
X28618Y54704D01*
X28513Y54746D01*
X28378Y54782D01*
X28214Y54811D01*
X28019Y54833D01*
X27540Y54859D01*
X27256Y54862D01*
Y56358D01*
X27540Y56363D01*
X28019Y56405D01*
X28214Y56441D01*
X28378Y56488D01*
X28513Y56545D01*
X28618Y56613D01*
X28692Y56691D01*
X28737Y56779D01*
X28752Y56878D01*
Y54540D01*
D02*
G37*
G36*
X34323Y54528D02*
X34122Y54457D01*
X33945Y54338D01*
X33791Y54172D01*
X33661Y53958D01*
X33555Y53697D01*
X33472Y53388D01*
X33413Y53032D01*
X33378Y52628D01*
X33366Y52177D01*
X31004D01*
X30992Y52628D01*
X30957Y53032D01*
X30898Y53388D01*
X30815Y53697D01*
X30709Y53958D01*
X30579Y54172D01*
X30425Y54338D01*
X30248Y54457D01*
X30047Y54528D01*
X29823Y54552D01*
X34547D01*
X34323Y54528D01*
D02*
G37*
G36*
X33370Y47079D02*
X33462Y45756D01*
X33504Y45543D01*
X33553Y45378D01*
X33610Y45260D01*
X33675Y45189D01*
X33748Y45165D01*
X30622D01*
X30695Y45189D01*
X30760Y45260D01*
X30817Y45378D01*
X30867Y45543D01*
X30909Y45756D01*
X30943Y46016D01*
X30989Y46677D01*
X31004Y47527D01*
X33366D01*
X33370Y47079D01*
D02*
G37*
G36*
X22945Y43305D02*
X23028Y43301D01*
X23284Y43298D01*
Y41802D01*
X23150Y41801D01*
X22945Y41786D01*
Y41266D01*
X22932Y41368D01*
X22894Y41459D01*
X22830Y41539D01*
X22740Y41609D01*
X22624Y41668D01*
X22483Y41716D01*
X22316Y41753D01*
X22124Y41780D01*
X21905Y41796D01*
X21662Y41802D01*
Y43298D01*
X21905Y43303D01*
X22316Y43346D01*
X22483Y43383D01*
X22624Y43431D01*
X22740Y43490D01*
X22830Y43560D01*
X22894Y43640D01*
X22932Y43731D01*
X22945Y43833D01*
Y43305D01*
D02*
G37*
D10*
X32185Y42520D02*
Y55610D01*
D12*
X81408Y21881D02*
X87087Y27559D01*
X69064Y21881D02*
X81408D01*
X52756Y28543D02*
X69882D01*
X50197Y25984D02*
X52756Y28543D01*
X81227Y19245D02*
X82913Y17559D01*
X78294Y19245D02*
X81227D01*
X50098Y31004D02*
X72835D01*
X53850Y50000D02*
X79527D01*
X87087Y57559D01*
X51811Y61181D02*
Y67402D01*
X59173Y53819D02*
X62421D01*
X51811Y61181D02*
X59173Y53819D01*
X62421D02*
X62598Y53642D01*
X44488Y32283D02*
X44685Y32480D01*
X47146D01*
X49508Y34843D01*
X42409Y38559D02*
X53850Y50000D01*
X45768Y36909D02*
X56417Y47559D01*
X87087D01*
X73373Y19245D02*
X78294D01*
X79921Y14567D02*
Y17618D01*
X78294Y19245D02*
X79921Y17618D01*
X73327Y19291D02*
X73373Y19245D01*
X82913Y17559D02*
X87087D01*
D14*
X32185Y34350D02*
D03*
X38091D02*
D03*
X79921Y14567D02*
D03*
X73819D02*
D03*
X22638Y56968D02*
D03*
X16732D02*
D03*
D29*
X41732Y49213D02*
Y51968D01*
X73819Y14567D02*
Y14665D01*
X73917Y14764D01*
D30*
X44488Y23130D02*
Y26378D01*
X47441Y51968D02*
X50197Y54724D01*
X41732Y51968D02*
X47441D01*
X50197Y54724D02*
Y59547D01*
X47146Y62598D02*
X50197Y59547D01*
X36614Y62598D02*
X47146D01*
X31811Y67402D02*
X36614Y62598D01*
D31*
X70276Y14764D02*
X73917D01*
X66240Y18799D02*
X70276Y14764D01*
X65650Y18799D02*
X66339Y18110D01*
X65483Y18966D02*
X65650Y18799D01*
X44488Y23130D02*
X55118D01*
X57480Y25492D01*
X75020D01*
X87087Y37559D01*
D32*
X21662Y42549D02*
X24478D01*
X24508Y42520D01*
X22638Y56968D02*
Y60728D01*
X21811Y61555D02*
Y67402D01*
Y61555D02*
X22638Y60728D01*
Y56673D02*
X23465Y55847D01*
X23760D01*
X23996Y55610D01*
X32185D01*
X22638Y56673D02*
Y56968D01*
D33*
X11811Y7402D02*
D03*
X81811Y67402D02*
D03*
D34*
X21811Y7402D02*
D03*
X31811D02*
D03*
X41811D02*
D03*
X51811D02*
D03*
X61811D02*
D03*
X71811D02*
D03*
X81811D02*
D03*
X87087Y27559D02*
D03*
Y37559D02*
D03*
Y47559D02*
D03*
Y57559D02*
D03*
X11811Y67402D02*
D03*
X21811D02*
D03*
X31811D02*
D03*
X41811D02*
D03*
X51811D02*
D03*
X61811D02*
D03*
X71811D02*
D03*
D35*
X87087Y17559D02*
D03*
D36*
X60630Y13484D02*
D03*
X69193Y21752D02*
D03*
X44488Y23130D02*
D03*
X34620Y20742D02*
D03*
X72835Y31004D02*
D03*
X49508Y34843D02*
D03*
X21949Y20768D02*
D03*
X50098Y31004D02*
D03*
X50197Y25984D02*
D03*
X69882Y28543D02*
D03*
X62598Y53642D02*
D03*
X28346Y37894D02*
D03*
X36614Y71653D02*
D03*
X20669Y28839D02*
D03*
X4035Y70472D02*
D03*
X25197Y51378D02*
D03*
X6004Y61417D02*
D03*
X30118Y60827D02*
D03*
X44390Y55512D02*
D03*
X45768Y36909D02*
D03*
X42409Y38559D02*
D03*
X73327Y19291D02*
D03*
X21662Y42549D02*
D03*
D37*
X32283Y55709D02*
D03*
X41732Y51968D02*
D03*
Y59449D02*
D03*
D38*
X32185Y42520D02*
D03*
X24508D02*
D03*
D39*
X44488Y32283D02*
D03*
Y26378D02*
D03*
D40*
X65650Y18799D02*
X66240D01*
X40748D02*
X65650D01*
X66240D02*
X69193Y21752D01*
X38091Y21457D02*
X40748Y18799D01*
X38091Y21457D02*
Y45571D01*
X41732Y49213D01*
M02*
