G04*
G04 #@! TF.GenerationSoftware,Altium Limited,Altium Designer,22.4.2 (48)*
G04*
G04 Layer_Color=8388736*
%FSLAX25Y25*%
%MOIN*%
G70*
G04*
G04 #@! TF.SameCoordinates,F7E3B1D8-2F66-413B-9CB6-F982D94F727F*
G04*
G04*
G04 #@! TF.FilePolarity,Negative*
G04*
G01*
G75*
%ADD20R,0.03543X0.04134*%
%ADD21O,0.09843X0.02165*%
%ADD22R,0.07874X0.07874*%
%ADD23R,0.05709X0.01968*%
%ADD24R,0.06693X0.08661*%
%ADD25R,0.07874X0.07480*%
%ADD26R,0.06299X0.06299*%
%ADD27C,0.06299*%
%ADD28R,0.06299X0.06299*%
D20*
X66535Y17815D02*
D03*
X60630D02*
D03*
X23622Y56102D02*
D03*
X29724D02*
D03*
D21*
X35039Y48917D02*
D03*
Y46358D02*
D03*
Y43799D02*
D03*
Y41240D02*
D03*
Y38681D02*
D03*
Y36122D02*
D03*
Y33563D02*
D03*
Y31004D02*
D03*
Y28445D02*
D03*
Y25886D02*
D03*
X62598Y48917D02*
D03*
Y46358D02*
D03*
Y43799D02*
D03*
Y41240D02*
D03*
Y38681D02*
D03*
Y36122D02*
D03*
Y33563D02*
D03*
Y31004D02*
D03*
Y28445D02*
D03*
Y25886D02*
D03*
D22*
X5906Y32677D02*
D03*
Y42126D02*
D03*
D23*
X16535Y42520D02*
D03*
Y37402D02*
D03*
Y34843D02*
D03*
Y32283D02*
D03*
Y39961D02*
D03*
D24*
X14764Y50591D02*
D03*
Y24213D02*
D03*
D25*
X5906Y53150D02*
D03*
Y21654D02*
D03*
D26*
X11811Y7402D02*
D03*
X81811Y67402D02*
D03*
D27*
X21811Y7402D02*
D03*
X31811D02*
D03*
X41811D02*
D03*
X51811D02*
D03*
X61811D02*
D03*
X71811D02*
D03*
X81811D02*
D03*
X87087Y27559D02*
D03*
Y37559D02*
D03*
Y47559D02*
D03*
Y57559D02*
D03*
X11811Y67402D02*
D03*
X21811D02*
D03*
X31811D02*
D03*
X41811D02*
D03*
X51811D02*
D03*
X61811D02*
D03*
X71811D02*
D03*
D28*
X87087Y17559D02*
D03*
M02*
