G04*
G04 #@! TF.GenerationSoftware,Altium Limited,Altium Designer,22.4.2 (48)*
G04*
G04 Layer_Color=32896*
%FSLAX25Y25*%
%MOIN*%
G70*
G04*
G04 #@! TF.SameCoordinates,F7E3B1D8-2F66-413B-9CB6-F982D94F727F*
G04*
G04*
G04 #@! TF.FilePolarity,Positive*
G04*
G01*
G75*
%ADD11C,0.00984*%
%ADD12C,0.00787*%
%ADD13C,0.01000*%
D11*
X42224Y62795D02*
G03*
X42224Y62795I-492J0D01*
G01*
D12*
X29232Y31398D02*
Y37303D01*
X41043D01*
Y31398D02*
Y37303D01*
X29232Y31398D02*
X41043D01*
X70965Y11614D02*
X82776D01*
Y17520D01*
X70965D02*
X82776D01*
X70965Y11614D02*
Y17520D01*
X33661Y49606D02*
Y52953D01*
Y49606D02*
X36811D01*
X33661Y58465D02*
Y61811D01*
X36811D01*
X13780Y54016D02*
X25591D01*
Y59921D01*
X13780D02*
X25591D01*
X13780Y54016D02*
Y59921D01*
X35039Y38780D02*
Y46260D01*
X21654Y38780D02*
X35039D01*
X21654D02*
Y46260D01*
X35039D01*
X47441Y23425D02*
Y35236D01*
X41535D02*
X47441D01*
X41535Y23425D02*
Y35236D01*
Y23425D02*
X47441D01*
X24311Y35629D02*
X25098Y36417D01*
X26672D01*
X27459Y35629D01*
Y32481D01*
X26672Y31694D01*
X25098D01*
X24311Y32481D01*
X20375Y31694D02*
Y36417D01*
X22737Y34055D01*
X19588D01*
D13*
X14075Y46404D02*
X18074D01*
Y43406D01*
X16074D01*
X18074D01*
Y40407D01*
X12075D02*
X10076D01*
X11076D01*
Y46404D01*
X12075Y45405D01*
X51824Y61298D02*
X56822D01*
X57822Y60298D01*
Y58299D01*
X56822Y57299D01*
X51824D01*
X57822Y51301D02*
Y55300D01*
X53823Y51301D01*
X52824D01*
X51824Y52301D01*
Y54300D01*
X52824Y55300D01*
X79884Y21607D02*
Y27605D01*
X76885D01*
X75886Y26606D01*
Y24606D01*
X76885Y23607D01*
X79884D01*
X77885D02*
X75886Y21607D01*
X73887D02*
X71887D01*
X72887D01*
Y27605D01*
X73887Y26606D01*
X33040Y22850D02*
X32040Y23850D01*
Y25849D01*
X33040Y26849D01*
X37039D01*
X38038Y25849D01*
Y23850D01*
X37039Y22850D01*
X33040Y20851D02*
X32040Y19851D01*
Y17852D01*
X33040Y16852D01*
X34040D01*
X35039Y17852D01*
Y18851D01*
Y17852D01*
X36039Y16852D01*
X37039D01*
X38038Y17852D01*
Y19851D01*
X37039Y20851D01*
X7283Y59184D02*
X8283Y60184D01*
X10283D01*
X11282Y59184D01*
Y55186D01*
X10283Y54186D01*
X8283D01*
X7283Y55186D01*
X5284Y54186D02*
X3285D01*
X4284D01*
Y60184D01*
X5284Y59184D01*
M02*
